<svg width="24" height="28" viewBox="0 0 24 28" fill="none" xmlns="http://www.w3.org/2000/svg">
<path d="M22.6667 8.66667L14.6667 1.65334C13.9333 0.997402 12.9839 0.634766 12 0.634766C11.0161 0.634766 10.0667 0.997402 9.33334 1.65334L1.33334 8.66667C0.909829 9.04544 0.571871 9.51008 0.341967 10.0297C0.112063 10.5493 -0.00451215 11.1118 4.32183e-06 11.68V23.3333C4.32183e-06 24.3942 0.421432 25.4116 1.17158 26.1618C1.92172 26.9119 2.93914 27.3333 4 27.3333H20C21.0609 27.3333 22.0783 26.9119 22.8284 26.1618C23.5786 25.4116 24 24.3942 24 23.3333V11.6667C24.0026 11.1008 23.8851 10.5407 23.6553 10.0236C23.4254 9.50644 23.0885 9.04395 22.6667 8.66667ZM14.6667 24.6667H9.33334V18C9.33334 17.6464 9.47381 17.3072 9.72386 17.0572C9.97391 16.8071 10.313 16.6667 10.6667 16.6667H13.3333C13.687 16.6667 14.0261 16.8071 14.2761 17.0572C14.5262 17.3072 14.6667 17.6464 14.6667 18V24.6667ZM21.3333 23.3333C21.3333 23.687 21.1929 24.0261 20.9428 24.2761C20.6928 24.5262 20.3536 24.6667 20 24.6667H17.3333V18C17.3333 16.9391 16.9119 15.9217 16.1618 15.1716C15.4116 14.4214 14.3942 14 13.3333 14H10.6667C9.6058 14 8.58839 14.4214 7.83824 15.1716C7.0881 15.9217 6.66667 16.9391 6.66667 18V24.6667H4C3.64638 24.6667 3.30724 24.5262 3.0572 24.2761C2.80715 24.0261 2.66667 23.687 2.66667 23.3333V11.6667C2.66691 11.4774 2.70746 11.2903 2.78563 11.1178C2.86379 10.9454 2.97778 10.7916 3.12 10.6667L11.12 3.66667C11.3633 3.45292 11.6761 3.33503 12 3.33503C12.3239 3.33503 12.6367 3.45292 12.88 3.66667L20.88 10.6667C21.0222 10.7916 21.1362 10.9454 21.2144 11.1178C21.2925 11.2903 21.3331 11.4774 21.3333 11.6667V23.3333Z" fill="#2BB2FF"/>
</svg>
